# xmcd
#
# Track frame offsets: 
#        150
#        22555
#        39697
#        63080
#        85288
#        96035
#        119407
#        142004
#        162248
#        171598
#        196577
#        216849
#        241213
#        260724
#        282708
#
# Disc length: 4135 seconds
#
# Revision: 2
# Processed by: cddbd v1.5.1PL0 Copyright (c) Steve Scherf et al.
# Submitted via: ExactAudioCopy v0.95b3
#
DISCID=d610250f
DTITLE=dj  - BES 78 RUS Drum'N'Bass MIX
DYEAR=2004
DGENRE=Drum and Bass
TTITLE0=Thousands - Socrat
TTITLE1=Let it Be [Proket remix] - Bad M.F. ft. Bad Girl
TTITLE2=We Want Your Soul [Sunchase remix] - Adam Freeland
TTITLE3=U and Me [feat. Meatworks and Yana Kay] - Paul B
TTITLE4=Murderer [Bes remix] - Zemine
TTITLE5=The Fight - Alien
TTITLE6=Suspicious Ecli pse - Proket
TTITLE7=Happy Bitch - Bes
TTITLE8=Trust - R.E.S.T.
TTITLE9=Remember me - Sunchase ft. Yana Kay
TTITLE10=What You Want - Paul B and Subwave
TTITLE11=Blue Angel - Bios ft. Eva Polna
TTITLE12=Context - Dissident and Bes
TTITLE13=Your Mind - A. Line (Oxide) and SNG
TTITLE14=B. Core and Paul B - Your Mind
EXTD=
EXTT0=
EXTT1=
EXTT2=
EXTT3=
EXTT4=
EXTT5=
EXTT6=
EXTT7=
EXTT8=
EXTT9=
EXTT10=
EXTT11=
EXTT12=
EXTT13=
EXTT14=
PLAYORDER=
